<?xml version="1.0" encoding="utf-8"?>
<!-- Generator: Adobe Illustrator 26.0.2, SVG Export Plug-In . SVG Version: 6.00 Build 0)  -->
<svg version="1.1" xmlns="http://www.w3.org/2000/svg" xmlns:xlink="http://www.w3.org/1999/xlink" x="0px" y="0px"
	 viewBox="0 0 336.22 56.79" style="enable-background:new 0 0 336.22 56.79;" xml:space="preserve">
<style type="text/css">
	.st0{fill:#FFFFFF;}
	.st1{font-family:'BebasNeueRounded-Regular';}
	.st2{font-size:73.8112px;}
	.st3{fill:#100D0C;}
	.st4{fill:#EF4638;}
	.st5{fill:#F89822;}
	.st6{fill:#F17C21;}
	.st7{fill:#60A845;}
	.st8{fill:#F07C22;}
	.st9{fill:#C72328;}
	.st10{fill:#F5F2F1;}
</style>
<g id="Layer_2">
	<rect width="336.22" height="56.79"/>
</g>
<g id="Layer_1">
	<text transform="matrix(1 0 0 1 69.7998 54.207)" class="st0 st1 st2">PEPPERMAP</text>
	<g>
		<path class="st3" d="M-1.3,34.07c0.22-0.11,0.19-0.34,0.27-0.52c1.07-2.52,4.31-3.18,6.27-1.26c1.81,1.77,3.87,3.19,6.17,4.28
			c0.34,0.16,0.57,0.17,0.86-0.12c0.67-0.65,1.46-1.18,2.33-1.53c0.47-0.19,0.52-0.44,0.44-0.89c-0.54-3.32-0.52-6.61,0.55-9.85
			c0.8-2.41,2.13-4.48,3.98-6.23c0.68-0.64,1.13-0.78,1.64-0.47c0.66,0.39,0.54,1,0.44,1.61c-0.28,1.76-0.38,3.51,0.07,5.26
			c0.39,1.54,1.31,2.37,2.71,2.55c1.63,0.21,2.58-0.54,2.79-2.17c0.26-1.96-0.15-3.84-0.57-5.73c-0.47-2.12-1.31-4.14-1.83-6.25
			c-1.5-6.03,1.38-12.44,6.85-15.4c0.48-0.26,0.94-0.36,1.39-0.02c0.46,0.35,0.46,0.83,0.33,1.36c-0.78,3.19-1.35,6.42-1.3,9.72
			c0.02,1.16,0.13,2.33,0.63,3.4c0.52,1.11,1.55,1.56,2.62,1.15c0.98-0.38,1.14-1.27,1.23-2.14c0.07-0.7,0.08-1.41-0.06-2.11
			c-0.04-0.22-0.04-0.46-0.04-0.68C36.46,7.6,36.65,7.3,37.01,7.1c0.38-0.2,0.79-0.22,1.12,0.05c2.94,2.47,5.14,5.36,4.94,9.45
			c-0.09,1.86-0.56,3.69-0.9,5.52c-0.35,1.85-0.87,3.68-0.83,5.59c0.01,0.51,0.14,0.94,0.6,1.23c0.57,0.35,1.21,0.28,1.71-0.21
			c0.92-0.87,1.3-2.01,1.55-3.19c0.24-1.15,0.26-2.32-0.01-3.46c-0.13-0.57-0.08-1.04,0.42-1.37c0.54-0.36,1.02-0.16,1.47,0.22
			c2.66,2.25,4.62,4.99,5.76,8.29c1.11,3.18,1.17,6.42,0.4,9.76c1.06-0.13,2.04-0.44,3.02-0.73c1.29-0.38,2.55-0.86,3.78-1.42
			c1.33-0.6,2.01-0.37,2.69,0.86c0,0.33,0,0.67,0,1c-0.06,0.05-0.13,0.1-0.17,0.16c-2.15,3.58-4.88,6.68-8.07,9.35
			c-6.52,5.45-14.04,8.32-22.54,8.58c-3.25,0.1-6.49-0.15-9.69-0.75c-2.95-0.55-5.81-1.4-8.35-3.07c-3.12-2.05-4.94-4.86-4.94-8.68
			c0-0.36-0.19-0.46-0.44-0.57c-1.09-0.47-2.16-0.98-3.14-1.64c-2.54-1.69-5.22-3.24-6.69-6.12C-1.3,35.31-1.3,34.69-1.3,34.07z
			 M43.12,52.32L43.12,52.32c0.22-0.06,0.44-0.11,0.66-0.19C49.26,49.91,53.9,46.54,57.69,42c0.67-0.8,1.33-1.61,1.93-2.61
			c-0.92,0.31-1.72,0.58-2.52,0.85c-2.62,0.75-5.27,1.33-7.99,1.6c-3.04,0.3-6.07,0.28-9.1-0.08c-4.14-0.5-8.14-1.59-12.05-3.05
			c-2.7-1.01-5.33-2.22-8.26-2.48c-2.72-0.24-5.04,0.47-6.76,2.66c-2.29,2.93-2.45,7.56-0.11,10.3c1.12,1.31,2.5,2.25,4.04,2.96
			c3.44,1.58,7.12,2.08,10.84,2.37c2.67,0.21,5.33,0.14,7.97-0.24c2.45-0.36,4.85-0.91,7.15-1.85
			C42.95,52.43,43.05,52.42,43.12,52.32z M39.97,30.19c-0.77-1-0.91-2.15-0.81-3.36c0.2-2.38,0.82-4.69,1.24-7.03
			c0.31-1.75,0.72-3.51,0.31-5.3c-0.31-1.37-0.9-2.59-1.97-3.7c-0.02,0.95-0.28,1.7-0.62,2.43c-0.23,0.32-0.43,0.66-0.73,0.93
			c-1.59,1.44-3.7,1.42-5.68-0.05c-0.72-0.78-1.15-1.71-1.39-2.74c-0.55-2.32-0.43-4.66-0.17-7c0.13-1.19,0.34-2.37,0.53-3.66
			c-1.12,0.98-2.01,2-2.62,3.25c-1.48,2.61-1.86,5.39-1.15,8.28c0.47,1.95,1.25,3.82,1.72,5.77c0.56,2.35,1.07,4.7,0.7,7.14
			c-0.31,2.01-1.54,3.45-3.34,3.81c-2.16,0.44-4.87-0.28-6.04-3.23c-0.49-1.24-0.72-2.52-0.75-3.87c-0.23,0.08-0.28,0.25-0.36,0.38
			c-2.1,3.61-2.34,7.5-1.68,11.51c0.05,0.33,0.21,0.34,0.47,0.31c2.89-0.24,5.61,0.5,8.25,1.56c5.76,2.31,11.64,4.07,17.9,4.25
			c1.69,0.05,3.37,0,5.05-0.21c0.51,0.08,0.99-0.11,1.49-0.12c0.37-0.01,0.57-0.17,0.68-0.57c1.13-4.08,0.67-7.97-1.33-11.68
			c-0.57-1.05-1.25-2.03-2.19-2.99c0.03,0.87-0.14,1.57-0.26,2.28c-0.36,1.02-0.78,2-1.42,2.88C44.21,31.65,42.05,31.92,39.97,30.19
			z M0.83,34.94C0.83,35.39,1,35.83,1.33,36.17c2.21,2.24,4.76,4.01,7.61,5.35c0.36,0.17,0.41-0.02,0.48-0.27
			c0.21-0.79,0.49-1.54,0.9-2.24c0.24-0.41,0.1-0.55-0.27-0.73c-1.36-0.64-2.62-1.43-3.83-2.33c-0.89-0.66-1.71-1.39-2.51-2.15
			c-0.53-0.5-1.16-0.63-1.84-0.33C1.22,33.77,0.89,34.3,0.83,34.94z"/>
		<path class="st4" d="M42.85,52.44c-2.3,0.94-4.7,1.49-7.15,1.85c-2.65,0.39-5.31,0.46-7.97,0.24c-3.72-0.3-7.4-0.8-10.84-2.37
			c-1.55-0.71-2.93-1.65-4.04-2.96c-2.34-2.74-2.18-7.38,0.11-10.3c1.71-2.19,4.04-2.9,6.76-2.66c2.93,0.26,5.56,1.47,8.26,2.48
			c3.9,1.46,7.9,2.55,12.05,3.05c3.03,0.36,6.06,0.38,9.1,0.08c2.72-0.27,5.37-0.85,7.99-1.6c-0.05,0.09-0.08,0.19-0.14,0.27
			c-1.62,2.35-3.54,4.43-5.68,6.31c-1.85,1.62-3.83,3.02-5.96,4.25c-0.73,0.42-1.56,0.66-2.19,1.25l0,0
			C43,52.29,42.9,52.3,42.85,52.44z M28.19,52.41c0.31,0.03,0.62,0.08,0.93,0.08c0.61,0,1.06-0.41,1.11-0.96
			c0.05-0.59-0.28-1.03-0.9-1.15c-0.16-0.03-0.33-0.05-0.49-0.06c-2.12-0.08-4.23-0.32-6.31-0.78c-2.06-0.46-4.07-1.04-5.75-2.41
			c-1.23-1-1.64-2.31-1.18-3.72c0.25-0.76,0.04-1.34-0.55-1.56c-0.63-0.24-1.2,0.09-1.47,0.87c-0.67,1.96-0.31,3.73,1.04,5.28
			c0.9,1.04,2.06,1.74,3.31,2.29C21.2,51.73,24.67,52.18,28.19,52.41z"/>
		<path class="st5" d="M31.71,14.1c1.98,1.48,4.08,1.49,5.68,0.05c0.3-0.27,0.5-0.61,0.73-0.93c0.28,0.04,0.26,0.31,0.32,0.48
			c0.41,1.26,0.47,2.56,0.25,3.85c-0.48,2.78-1.05,5.54-1.54,8.32c-0.15,0.84-0.22,1.72-0.03,2.57c0.27,1.21,1.21,1.77,2.86,1.74
			c2.07,1.73,4.24,1.45,5.84-0.73c0.65-0.88,1.06-1.87,1.42-2.88c1.18,1.8,1.78,3.81,2.1,5.9c0.22,1.45,0.21,2.92,0.03,4.39
			c-0.12,0.94-0.41,1.85-0.52,2.79c-1.68,0.22-3.36,0.26-5.05,0.21c-6.26-0.18-12.14-1.94-17.9-4.25c-2.64-1.06-5.36-1.8-8.25-1.56
			c-0.25,0.02-0.41,0.01-0.47-0.31c-0.66-4.02-0.42-7.9,1.68-11.51c0.08-0.13,0.13-0.31,0.36-0.38c0.03,1.34,0.26,2.63,0.75,3.87
			c1.17,2.95,3.88,3.67,6.04,3.23c1.8-0.36,3.03-1.8,3.34-3.81c0.37-2.44-0.14-4.79-0.7-7.14c-0.47-1.96-1.24-3.82-1.72-5.77
			c-0.7-2.9-0.33-5.67,1.15-8.28c0,0.17,0.02,0.33-0.01,0.5c-0.3,2.12-0.42,4.25,0.03,6.35C28.5,12.67,29.21,14.25,31.71,14.1z"/>
		<path class="st6" d="M39.97,30.19c-1.64,0.03-2.58-0.53-2.86-1.74c-0.19-0.85-0.12-1.73,0.03-2.57c0.49-2.78,1.06-5.54,1.54-8.32
			c0.22-1.29,0.16-2.59-0.25-3.85c-0.06-0.18-0.04-0.44-0.32-0.48c0.35-0.73,0.61-1.48,0.62-2.43c1.07,1.11,1.66,2.33,1.97,3.7
			c0.41,1.79,0,3.55-0.31,5.3c-0.42,2.34-1.04,4.65-1.24,7.03C39.06,28.04,39.2,29.19,39.97,30.19z"/>
		<path class="st7" d="M0.83,34.94c0.06-0.65,0.38-1.17,1.03-1.47c0.68-0.31,1.31-0.18,1.84,0.33c0.8,0.76,1.62,1.49,2.51,2.15
			c1.2,0.89,2.47,1.69,3.83,2.33c0.38,0.18,0.51,0.32,0.27,0.73c-0.41,0.7-0.69,1.46-0.9,2.24c-0.07,0.25-0.11,0.44-0.48,0.27
			c-2.85-1.34-5.4-3.11-7.61-5.35C1,35.83,0.83,35.39,0.83,34.94z"/>
		<path class="st8" d="M48.84,39.67c0.11-0.94,0.4-1.85,0.52-2.79c0.18-1.47,0.19-2.93-0.03-4.39c-0.32-2.09-0.92-4.11-2.1-5.9
			c0.11-0.71,0.29-1.41,0.26-2.28c0.94,0.96,1.62,1.93,2.19,2.99c2,3.71,2.46,7.6,1.33,11.68c-0.11,0.4-0.3,0.57-0.68,0.57
			C49.83,39.56,49.34,39.75,48.84,39.67z"/>
		<path class="st6" d="M31.71,14.1c-2.5,0.15-3.22-1.43-3.61-3.29c-0.45-2.11-0.34-4.23-0.03-6.35c0.02-0.16,0.01-0.33,0.01-0.5
			c0.61-1.25,1.5-2.27,2.62-3.25c-0.19,1.29-0.4,2.47-0.53,3.66c-0.26,2.34-0.38,4.67,0.17,7C30.57,12.39,30.99,13.32,31.71,14.1z"
			/>
		<path class="st9" d="M43.12,52.33c0.63-0.59,1.47-0.83,2.19-1.25c2.13-1.23,4.11-2.63,5.96-4.25c2.14-1.88,4.06-3.96,5.68-6.31
			c0.06-0.08,0.09-0.18,0.14-0.27c0.8-0.27,1.6-0.54,2.52-0.85c-0.6,1-1.26,1.81-1.93,2.61c-3.79,4.54-8.43,7.91-13.91,10.13
			C43.56,52.22,43.34,52.26,43.12,52.33z"/>
		<path class="st9" d="M42.85,52.44c0.05-0.13,0.15-0.15,0.27-0.11C43.05,52.42,42.95,52.43,42.85,52.44z"/>
		<path class="st10" d="M28.19,52.41c-3.52-0.23-7-0.68-10.26-2.12c-1.25-0.55-2.41-1.25-3.31-2.29c-1.35-1.56-1.72-3.32-1.04-5.28
			c0.27-0.78,0.84-1.1,1.47-0.87c0.59,0.22,0.8,0.8,0.55,1.56c-0.46,1.41-0.05,2.72,1.18,3.72c1.68,1.36,3.69,1.95,5.75,2.41
			c2.08,0.46,4.18,0.7,6.31,0.78c0.17,0.01,0.33,0.02,0.49,0.06c0.61,0.13,0.95,0.56,0.9,1.15c-0.05,0.56-0.5,0.97-1.11,0.96
			C28.81,52.49,28.5,52.44,28.19,52.41z"/>
	</g>
</g>
<g id="Layer_3">
</g>
</svg>
